<svg height="1000" viewBox="0 0 1600 1000" width="1600" xmlns="http://www.w3.org/2000/svg" xmlns:xlink="http://www.w3.org/1999/xlink"><clipPath id="d"><path d="M888.599 604.403h451.765V908.44H888.6z" transform="matrix(-1 -0 0 -1 2228.96313 1512.84363)"/></clipPath><linearGradient id="e" gradientTransform="matrix(.98192 -.18929 .18929 .98192 -648.39404 1283.17468)" gradientUnits="userSpaceOnUse" x1="1755.912" x2="1902.716" y1="-279.193" y2="-132.389"><stop offset="0" stop-color="#d2f1ff"/><stop offset=".092" stop-color="#c9edff"/><stop offset=".474" stop-color="#a7deff"/><stop offset=".79" stop-color="#92d5ff"/><stop offset="1" stop-color="#8bd2ff"/></linearGradient><linearGradient id="a"><stop offset="0" stop-color="#fff"/><stop offset="1" stop-color="#fff" stop-opacity="0"/></linearGradient><linearGradient id="f" gradientUnits="userSpaceOnUse" x1="1215.084" x2="1172.22" xlink:href="#a" y1="707.786" y2="664.922"/><clipPath id="g"><path d="M1078.338 526.358h227.432v78.045h-227.432z" transform="matrix(-1 -0 0 -1 2384.1084 1130.76099)"/></clipPath><linearGradient id="h" gradientUnits="userSpaceOnUse" x1="1179.097" x2="1179.097" y1="390.681" y2="487.593"><stop offset="0" stop-color="#fff"/><stop offset=".554" stop-color="#e4f6ff"/><stop offset="1" stop-color="#d2f1ff"/></linearGradient><linearGradient id="b"><stop offset="0" stop-color="#fb8cff"/><stop offset="1" stop-color="#f04af4"/></linearGradient><linearGradient id="i" gradientUnits="userSpaceOnUse" x1="592.866" x2="592.866" xlink:href="#b" y1="872.696" y2="811.472"/><linearGradient id="j" gradientUnits="userSpaceOnUse" x1="593.195" x2="593.195" xlink:href="#a" y1="871.261" y2="825.983"/><linearGradient id="k" gradientUnits="userSpaceOnUse" x1="434.175" x2="434.175" y1="715.783" y2="838.774"><stop offset="0" stop-color="#d2f1ff"/><stop offset=".097" stop-color="#caeeff"/><stop offset=".698" stop-color="#9ddaff"/><stop offset="1" stop-color="#8bd2ff"/></linearGradient><linearGradient id="l" gradientUnits="userSpaceOnUse" x1="1135.999" x2="1225.842" xlink:href="#b" y1="425.044" y2="514.887"/><linearGradient id="m" gradientUnits="userSpaceOnUse" x1="1139.443" x2="1170.984" xlink:href="#a" y1="428.513" y2="460.054"/><linearGradient id="n" gradientUnits="userSpaceOnUse" x1="735.603" x2="735.603" y1="380.699" y2="545.875"><stop offset="0" stop-color="#d2f1ff"/><stop offset=".302" stop-color="#c0e9ff"/><stop offset=".903" stop-color="#93d5ff"/><stop offset="1" stop-color="#8bd2ff"/></linearGradient><linearGradient id="o" gradientUnits="userSpaceOnUse" x1="693.067" x2="693.067" xlink:href="#b" y1="378.478" y2="440.547"/><linearGradient id="p" gradientUnits="userSpaceOnUse" x1="722.716" x2="722.716" y1="354.076" y2="430.544"><stop offset="0" stop-color="#8bd2ff"/><stop offset=".302" stop-color="#84cbfe"/><stop offset=".756" stop-color="#71b6fa"/><stop offset="1" stop-color="#64a8f8"/></linearGradient><linearGradient id="q" gradientUnits="userSpaceOnUse" x1="686.281" x2="686.281" xlink:href="#a" y1="372.478" y2="399.412"/><linearGradient id="r" gradientUnits="userSpaceOnUse" x1="299.599" x2="410.494" xlink:href="#a" y1="540.401" y2="651.295"/><linearGradient id="s" gradientUnits="userSpaceOnUse" x1="360.54" x2="478.098" xlink:href="#a" y1="594.242" y2="711.801"/><linearGradient id="t" gradientUnits="userSpaceOnUse" x1="181.403" x2="259.402" xlink:href="#a" y1="679.988" y2="757.987"/><linearGradient id="c"><stop offset="0" stop-color="#8bd2ff"/><stop offset="1" stop-color="#8bd2ff" stop-opacity="0"/></linearGradient><linearGradient id="u" gradientUnits="userSpaceOnUse" x1="656.349" x2="551.428" xlink:href="#c" y1="483.044" y2="587.965"/><linearGradient id="v" gradientUnits="userSpaceOnUse" x1="427.46" x2="427.46" xlink:href="#c" y1="839.435" y2="757.908"/><linearGradient id="w" gradientUnits="userSpaceOnUse" x1="241.553" x2="278.492" xlink:href="#a" y1="554.621" y2="591.559"/><linearGradient id="x" gradientUnits="userSpaceOnUse" x1="842.43" x2="1001.523" xlink:href="#b" y1="171.831" y2="330.924"/><linearGradient id="y" gradientUnits="userSpaceOnUse" x1="844.513" x2="906.882" xlink:href="#a" y1="173.922" y2="236.291"/><linearGradient id="z" gradientUnits="userSpaceOnUse" x1="876.648" x2="935.964" y1="198.265" y2="257.581"><stop offset="0" stop-color="#fff"/><stop offset=".056" stop-color="#eff2f8"/><stop offset=".41" stop-color="#8a9fce"/><stop offset=".696" stop-color="#4063af"/><stop offset=".898" stop-color="#123d9b"/><stop offset="1" stop-color="#002f94"/></linearGradient><clipPath id="A"><path d="M921.8 185.517h367.94v148.308H921.8z" transform="matrix(-1 -0 0 -1 2211.54077 519.34186)"/></clipPath><linearGradient id="B" gradientUnits="userSpaceOnUse" x1="360.44" x2="387.216" xlink:href="#b" y1="399.492" y2="426.269"/><linearGradient id="C" gradientUnits="userSpaceOnUse" x1="457.014" x2="483.437" xlink:href="#b" y1="197.6" y2="224.023"/><linearGradient id="D" gradientUnits="userSpaceOnUse" x1="665.022" x2="691.445" xlink:href="#b" y1="269.981" y2="296.404"/><clipPath id="E"><path d="M1053.516 333.796h227.431v78.046h-227.431z"/></clipPath><path d="M1302.041 838.753H900.043v-234.35h401.998z" fill="#002f94"/><path d="M1280.223 628.985h-70.494a1 1 0 1 1 0-2h70.494a1 1 0 1 1 0 2zm0 10.126h-55.832a1 1 0 1 1 0-2h55.832a1 1 0 1 1 0 2zm0 10.397h-66.263a1 1 0 1 1 0-2h66.263a1 1 0 1 1 0 2zm0 10.608h-27.916a1 1 0 1 1 0-2h27.916a1 1 0 1 1 0 2zm-321.825-3.16h-33.694a1 1 0 1 1 0-2h33.694a1 1 0 1 1 0 2zm-20.085 10.126H921.2a1 1 0 1 1 0-2h17.114a1 1 0 1 1 0 2zm20.085 0h-13.343a1 1 0 1 1 0-2h13.343a1 1 0 1 1 0 2zm0 10.397h-20.085a1 1 0 1 1 0-2h20.085a1 1 0 1 1 0 2zm0 10.608h-25.942a1 1 0 1 1 0-2h25.942a1 1 0 1 1 0 2zm16.672 109.005h-52.833a1 1 0 1 1 0-2h52.832a1 1 0 1 1 0 2zm-30.576-15.278h-22.257a1 1 0 1 1 0-2h22.257a1 1 0 1 1 0 2zm20.504 30.649h-42.76a1 1 0 1 1 0-2h42.76a1 1 0 1 1 0 2z" fill="#d2f1ff"/><g clip-path="url(#d)"><path d="m1051.735 669.424-13.52 14.777c-3.117-1.597-7.149-3.82-11.912-6.53-40.603-23.15-134.12-82.43-165.082-100.991-41.82-25.08-7.857-75.593 33.382-42.48 37.54 30.153 117.168 100.013 146.227 125.604 6.863 6.047 10.905 9.62 10.905 9.62z" fill="#8bd2ff"/><path d="M1041.475 792.608c-12.183-63.204 29.177-124.318 92.38-136.502 36.18-6.974 71.671 3.603 97.695 25.773-26.35-30.844-68.074-47.037-110.754-38.81-63.204 12.184-104.564 73.298-92.38 136.502 5.209 27.024 19.368 50.048 38.806 66.607-12.67-14.83-21.79-33.047-25.747-53.57z" fill="#2254d1"/><path d="M1040.83 659.804a142.508 142.508 0 0 0-14.527 17.867c4.763 2.71 8.795 4.933 11.912 6.53l13.52-14.777s-4.042-3.573-10.905-9.62z" fill="#002f94"/><path d="M1164.07 867.558c-60.58 11.678-119.156-27.964-130.834-88.544-11.678-60.58 27.965-119.156 88.545-130.834 60.58-11.678 119.156 27.964 130.834 88.544 11.678 60.58-27.965 119.156-88.545 130.834zm109.597-134.892c-13.92-72.206-83.738-119.457-155.945-105.538-72.206 13.92-119.457 83.738-105.537 155.944 13.919 72.206 83.737 119.457 155.944 105.538 72.206-13.92 119.457-83.738 105.538-155.944z" fill="#8bd2ff"/><path d="M1167.216 883.875c-69.48 13.394-136.903-32.235-150.297-101.716-13.394-69.48 32.236-136.902 101.716-150.296 69.48-13.394 136.903 32.235 150.296 101.716s-32.235 136.902-101.715 150.296zm-46.348-240.43c-63.094 12.163-104.53 73.388-92.367 136.482 12.163 63.094 73.388 104.529 136.482 92.366 63.094-12.162 104.53-73.388 92.366-136.482-12.162-63.093-73.388-104.529-136.481-92.366z" fill="url(#e)"/></g><path clip-path="url(#d)" d="M1166.205 663.03c12.297.778 25.35 6.121 34.709 12.37 8.6 5.743 4.3 15.71-5.034 10.622-8.843-4.819-23.568-10.684-33.018-12.05-6.464-.933-7.39-11.622 3.343-10.942zm56.371 38.897c2.054-2.4-.395-7.412-2.863-9.484-3.041-2.551-7.25-4.453-10.144-1.43-2.894 3.022-.046 5.527 3.145 10.213 2.9 4.259 7.808 3.101 9.862.7z" fill="url(#f)"/><path d="M988.906 744.314h-40.253a1 1 0 1 1 0-2h40.253a1 1 0 1 1 0 2zm0 10.608h-16.958a1 1 0 1 1 0-2h16.958a1 1 0 1 1 0 2zm225.018-11.718h-80.216a5.442 5.442 0 0 1-5.442-5.442v-.743a5.442 5.442 0 0 1 5.442-5.442h80.216a5.442 5.442 0 0 1 5.442 5.442v.743a5.442 5.442 0 0 1-5.442 5.442zm0 25.032H1075.2a5.442 5.442 0 0 1-5.442-5.443v-.742a5.442 5.442 0 0 1 5.442-5.442h138.724a5.442 5.442 0 0 1 5.442 5.442v.742a5.442 5.442 0 0 1-5.442 5.443zm-91.1 24.399H1075.2a5.442 5.442 0 0 1-5.442-5.442v-.743a5.442 5.442 0 0 1 5.442-5.442h47.624a5.442 5.442 0 0 1 5.442 5.442v.743a5.442 5.442 0 0 1-5.442 5.442zm91.1 0h-58.841a5.442 5.442 0 0 1-5.442-5.442v-.743a5.442 5.442 0 0 1 5.442-5.442h58.84a5.442 5.442 0 0 1 5.443 5.442v.743a5.442 5.442 0 0 1-5.442 5.442z" fill="#d2f1ff"/><path d="M1119.615 743.794a1 1 0 0 1-1-1v-16.645a1 1 0 1 1 2 0v16.645a1 1 0 0 1-1 1z" fill="#8bd2ff"/><path d="M670.265 604.403h234.35v234.35h-234.35z" fill="#2254d1"/><path d="M743.705 739.313c6.184-27.992 34.816-40.41 34.816-60.78 0-13.675-7.253-23.7-12.252-28.986-1.52-1.607-.372-4.248 1.84-4.248 23.473-5.07 47.581-4.826 72.237 0 2.213 0 3.36 2.641 1.84 4.249-5.002 5.286-12.257 15.31-12.257 28.985 0 20.37 28.631 32.788 34.815 60.78z" fill="#d2f1ff"/><path d="M865.572 745.244a1 1 0 0 1-.992-.885 48.09 48.09 0 0 0-.813-4.83 1 1 0 0 1 1.954-.432c.364 1.649.649 3.342.845 5.031a1 1 0 0 1-.994 1.116zm-61.348 59.3a85.37 85.37 0 0 1-5.084-.152 1 1 0 1 1 .122-1.996c3.304.2 6.776.195 10.055-.009a1.01 1.01 0 0 1 1.06.936 1 1 0 0 1-.937 1.06c-1.705.106-3.46.16-5.216.16zm-15.116-1.432a.978.978 0 0 1-.194-.019 68.751 68.751 0 0 1-9.954-2.744 1 1 0 0 1 .678-1.882 66.778 66.778 0 0 0 9.663 2.664 1 1 0 0 1-.193 1.981zm30.363-.026a1 1 0 0 1-.195-1.98 66.636 66.636 0 0 0 9.657-2.683 1 1 0 0 1 .682 1.88 68.55 68.55 0 0 1-9.948 2.764.998.998 0 0 1-.196.02zm-49.43-6.896a.992.992 0 0 1-.488-.127 58.363 58.363 0 0 1-8.543-5.841 1 1 0 0 1 1.273-1.543 56.257 56.257 0 0 0 8.248 5.64 1 1 0 0 1-.49 1.871zm68.483-.064a1.001 1.001 0 0 1-.492-1.871 56.489 56.489 0 0 0 8.236-5.66 1 1 0 1 1 1.276 1.54 58.342 58.342 0 0 1-8.53 5.861.993.993 0 0 1-.49.13zm-84.092-12.845a1 1 0 0 1-.77-.36 53.77 53.77 0 0 1-5.836-8.562 1 1 0 1 1 1.754-.961 51.729 51.729 0 0 0 5.62 8.243 1 1 0 0 1-.768 1.64zm99.67-.102a1 1 0 0 1-.769-1.638 51.753 51.753 0 0 0 5.6-8.259 1 1 0 1 1 1.755.956 53.628 53.628 0 0 1-5.816 8.579.996.996 0 0 1-.77.362zm-109.374-17.661a1 1 0 0 1-.955-.704 49.915 49.915 0 0 1-2.034-10.176 1 1 0 0 1 .904-1.088.995.995 0 0 1 1.088.903c.304 3.285.96 6.571 1.952 9.768a1 1 0 0 1-.955 1.297zm119.032-.129a1 1 0 0 1-.956-1.294 47.77 47.77 0 0 0 1.924-9.77 1 1 0 0 1 1.992.179 49.859 49.859 0 0 1-2.004 10.179c-.133.43-.529.706-.956.706zm-120.882-20.145a1 1 0 0 1-.994-1.116c.196-1.686.48-3.378.844-5.03a1 1 0 1 1 1.953.43 48.684 48.684 0 0 0-.811 4.831 1 1 0 0 1-.992.885z" fill="#d2f1ff"/><path d="M803.548 695.067c-9.863 0-19.581-1.964-25.96-5.896a1 1 0 1 1 1.049-1.702c12.26 7.555 37.405 7.528 50.767-.054a1 1 0 1 1 .986 1.74c-6.945 3.94-16.965 5.912-26.842 5.912zm.749-22.927c-9.338 0-18.762-1.423-26.212-4.267a1 1 0 1 1 .713-1.869c14.255 5.443 36.894 5.446 50.466.006a1 1 0 0 1 .745 1.857c-7.108 2.848-16.368 4.273-25.712 4.273z" fill="#002f94"/><ellipse cx="804.225" cy="647.514" fill="#2254d1" rx="35.015" ry="3.786"/><path d="M879.174 740.313h-149.89a1 1 0 1 1 0-2h149.89a1 1 0 1 1 0 2z" fill="#d2f1ff"/><path d="M819.622 729.707c0 3.205-1.313 6.882-3.18 10.483h-24.88c-1.867-3.601-3.18-7.278-3.18-10.483 0-.236.008-.472.017-.707l.05-.673v-.034c.034-.463.101-.917.185-1.363 1.305-7.311 7.7-12.848 15.372-12.848 7.674 0 14.06 5.537 15.364 12.848.084.446.151.9.185 1.363v.034c.025.227.042.446.05.673.009.235.017.47.017.707z" fill="#8bd2ff"/><path d="M801.39 740.19h-27.925a13.461 13.461 0 0 1 3.962-9.39 13.518 13.518 0 0 1 11.207-3.87 13.357 13.357 0 0 1 7.06 3.046c.134.11.269.219.403.345.169.151.337.311.505.48 2.162 2.162 3.694 5.645 4.788 9.389zm33.158 0h-27.934c1.094-3.744 2.626-7.227 4.788-9.39.278-.277.572-.538.867-.79.143-.127.294-.253.445-.362.143-.11.278-.21.413-.312.042-.025.084-.05.126-.084.134-.092.27-.177.404-.269.16-.101.32-.194.48-.295a13.315 13.315 0 0 1 5.233-1.758c3.996-.48 8.153.808 11.215 3.87 2.6 2.6 3.92 5.982 3.963 9.39z" fill="#8bd2ff"/><path d="M801.39 740.19h-9.827c-1.868-3.601-3.181-7.278-3.181-10.483 0-.236.008-.472.017-.707l.05-.673v-.034c.05-.454.118-.909.194-1.355 1.817.22 3.6.8 5.233 1.75.32.194.64.396.951.615.16.11.311.227.463.345.134.1.27.21.403.328.135.11.27.219.404.345.169.151.337.311.505.48 2.162 2.162 3.694 5.645 4.788 9.389zm18.232-10.483c0 3.205-1.313 6.882-3.18 10.483h-9.828c1.094-3.744 2.626-7.227 4.788-9.39.277-.277.572-.538.867-.79.143-.127.294-.253.445-.362.143-.11.278-.21.413-.312.042-.025.084-.05.126-.084.134-.092.27-.177.404-.269.16-.101.32-.194.48-.295a13.586 13.586 0 0 1 5.224-1.75c.076.446.144.9.194 1.355v.034l.05.673c.009.235.017.47.017.707z" fill="#64a8f8"/><path d="M254.75 545.607a1 1 0 0 1-.875-.515l-51.04-92.213a1.006 1.006 0 0 1-.078-.789l54.368-170.406a1.01 1.01 0 0 1 .284-.439l72.957-65.67c.169-.152.384-.241.61-.255l136.503-8.012 121.845-51.319a1.03 1.03 0 0 1 .436-.077l178.382 8.478a.996.996 0 0 1 .416.113l75.25 39.403a1 1 0 1 1-.927 1.772l-75.055-39.3-177.936-8.457-121.793 51.297a.994.994 0 0 1-.329.077l-136.325 8.001-72.495 65.254-54.154 169.738 50.83 91.835a1 1 0 0 1-.873 1.484z" fill="#002f94"/><path d="M768.095 293.115a1 1 0 0 1-.88-.523l-27.218-50.096a1 1 0 0 1 1.758-.955l26.784 49.297 62.626-26.703a1 1 0 1 1 .785 1.84l-63.463 27.06c-.128.054-.26.08-.392.08zM203.71 453.395a1 1 0 0 1-.723-1.69L310.43 339.23a.98.98 0 0 1 .254-.192l97.725-51.818c.105-.055.217-.091.333-.107l173.733-23.78a1 1 0 0 1 .271 1.981L409.189 289.07l-97.425 51.659-107.33 112.356a.996.996 0 0 1-.723.309z" fill="#002f94"/><path d="M311.152 340.922c-.27 0-.54-.11-.737-.325l-53.074-57.933a1 1 0 1 1 1.474-1.35l53.074 57.933a1 1 0 0 1-.737 1.675zm97.725-51.817a.999.999 0 0 1-.678-.266l-77.842-71.785a1 1 0 1 1 1.356-1.47l77.021 71.029 58.171-78.91a1 1 0 0 1 1.243-.305l113.563 55.376 7.003-105.93a.999.999 0 0 1 1.488-.805l150.129 84.526 26.821-75.51a1 1 0 1 1 1.885.669l-27.219 76.63a1 1 0 0 1-1.432.536l-149.782-84.329-6.996 105.83a1.002 1.002 0 0 1-1.436.833L468.02 209.56l-58.339 79.137a1.001 1.001 0 0 1-.804.407z" fill="#002f94"/><path d="M373.82 413.873c-.288 0-.566-.124-.759-.348l-62.668-72.951a1 1 0 0 1 1.518-1.304l61.451 71.536 34.552-122.972a1 1 0 0 1 1.926.541l-35.057 124.769a1 1 0 0 1-.963.73z" fill="#002f94"/><path d="M319.508 503.384a.999.999 0 0 1-.854-1.519l54.312-89.51a1.002 1.002 0 0 1 1.182-.427l106.35 36.943a1 1 0 0 1-.655 1.89l-105.587-36.678-53.893 88.82a.998.998 0 0 1-.855.481zm234.738-161.926a1 1 0 0 1-.938-1.35l28.365-76.132a1 1 0 0 1 1.136-.631l96.285 19.529c.293.06.544.246.683.51l30.088 56.604a1 1 0 1 1-1.766.938l-29.866-56.186-94.984-19.265-28.066 75.331a1 1 0 0 1-.937.652z" fill="#002f94"/><path d="M799.437 341.457a1 1 0 0 1-.84-.456l-31.078-47.935-88.716-8.217a1 1 0 0 1-.468-1.825l61.981-41.834a1 1 0 0 1 1.12 1.657l-59.662 40.27 86.412 8.002a.997.997 0 0 1 .747.452l31.342 48.342a.999.999 0 0 1-.838 1.544z" fill="#002f94"/><path d="M1402.904 604.403H956.8V333.825h446.104z" fill="#64a8f8"/><path d="M1008.588 468.077c0 2.466-.77 11 3.564 16.38 11.413 14.161 77.338 73.63 167.7 73.63 80.844 0 158.713-59.469 168.447-78.995 1.152-2.31 1.275-6.731 1.275-9.978-34.096 0-340.986-1.037-340.986-1.037z" fill="#002f94"/><g clip-path="url(#g)" fill="#d2f1ff"><path d="M1226.714 612.446a1 1 0 0 1-1-1c0-2.8.013-6.821.027-11.044.015-4.666.031-9.578.031-13.36 0-5.702-2.6-6.877-7.4-7.05-3.593-.131-8.32-.225-12.892-.316-6.239-.123-12.133-.24-15.252-.441-12.133-.783-11.963-9.586-11.706-22.91l.036-1.875c.01-.552.447-.956 1.017-.983a1 1 0 0 1 .983 1.018l-.036 1.879c-.278 14.38.001 20.24 9.835 20.875 3.075.198 8.947.315 15.163.438 4.58.09 9.315.185 12.924.315 4.845.176 9.328 1.393 9.328 9.05 0 3.784-.016 8.698-.03 13.366-.015 4.22-.028 8.239-.028 11.038a1 1 0 0 1-1 1zm-110.009-1.51a1 1 0 0 1-1-1c0-5.456-.053-9.985-.105-14.365-.042-3.718-.084-7.186-.084-10.73 0-3.712.998-6.585 2.963-8.538 1.857-1.845 4.501-2.722 7.843-2.747 2.16.014 4.01.044 5.696.07 3.181.051 5.694.09 8.622.008 6.329-.182 9.406-3.428 9.406-9.926V551.63a1 1 0 1 1 2 0v12.078c0 7.588-3.925 11.712-11.35 11.925-2.972.085-5.504.044-8.71-.007-1.68-.026-3.524-.056-5.678-.07-2.769.008-4.954.71-6.42 2.166-1.574 1.564-2.372 3.96-2.372 7.119 0 3.536.042 6.997.084 10.706.052 4.386.105 8.921.105 14.39a1 1 0 0 1-1 1zm160.385 0a1 1 0 0 1-1-1c0-8.711-.041-15.38-.077-21.067-.027-4.234-.05-7.926-.05-11.513 0-3.114-.9-5.639-2.606-7.3-1.789-1.745-4.453-2.574-7.941-2.494-3.312.085-9.629.002-16.943-.094-9.683-.126-21.732-.284-30.404-.077-4.19.105-6.821-.598-8.52-2.265-2.54-2.495-2.517-6.652-2.482-12.945l.003-.458c.004-.553.426-.965 1.006-.995a1 1 0 0 1 .994 1.005l-.003.459c-.032 5.784-.053 9.604 1.884 11.507 1.263 1.24 3.52 1.774 7.071 1.693 8.706-.208 20.777-.05 30.476.077 7.293.096 13.59.178 16.867.094 4.031-.107 7.198.925 9.388 3.06 2.1 2.047 3.21 5.067 3.21 8.733 0 3.584.023 7.271.05 11.5.036 5.692.077 12.363.077 21.08a1 1 0 0 1-1 1z"/></g><path d="M1344.146 479.925c7.282-6.178 7.282-17.39 0-23.568-26.441-22.431-90.377-69.05-165.05-69.05s-138.607 46.619-165.048 69.05c-7.282 6.177-7.282 17.39 0 23.568 26.441 22.431 90.377 69.05 165.049 69.05s138.608-46.619 165.049-69.05z" fill="#d2f1ff"/><path d="M1179.097 539.33c-72.308 0-135.148-46.687-158.81-66.76-1.79-1.518-2.057-3.426-2.057-4.429s.268-2.912 2.057-4.43c23.662-20.073 86.502-66.76 158.81-66.76s135.149 46.687 158.81 66.76c1.789 1.517 2.056 3.427 2.056 4.43s-.267 2.912-2.056 4.43c-23.661 20.072-86.501 66.76-158.81 66.76z" fill="url(#h)"/><path d="M1224.913 468.142a45.69 45.69 0 0 1-1.31 10.897c-2.933 12.056-10.648 22.25-21.015 28.44-6.867 4.119-14.91 6.482-23.493 6.482-3.81 0-7.513-.463-11.043-1.35-11.949-2.952-22.046-10.59-28.228-20.851a45.602 45.602 0 0 1-6.548-23.618c0-3.636.424-7.175 1.234-10.57 2.845-12.103 10.503-22.345 20.832-28.624 6.924-4.204 15.054-6.625 23.753-6.625 3.954 0 7.802.501 11.457 1.446 11.698 3.01 21.593 10.522 27.707 20.58 4.224 6.935 6.654 15.084 6.654 23.793z" fill="#d2f1ff"/><path d="M460.929 333.825h495.87v270.578H460.93z" fill="#8bd2ff"/><path d="M685.63 804.1c-7.82 33.87-33.16 74.65-88.96 74.65-55.41 0-81.2-28.98-92.45-54.39.378-8.697-2.263-14.567-6.32-19.63 6.68-5.48 14.7-10.14 23.66-14.09 36.11-15.92 87.42-20.31 127.28-20.25h.02c15.12.02 28.59.69 38.97 1.61-2.547 9.228-5.384 19.402-2.2 32.1z" fill="url(#i)"/><path d="M596.67 870.75c-50.99 0-74.029-25.745-84.413-48.04 0-5.873-1.172-11.113-3.605-16 4.7-3.16 10.1-6.089 16.136-8.75 38.624-17.028 93.798-19.57 123.248-19.57h.792c11.6.015 21.345.407 28.91.877-1.516 7.162-2.33 15.381-.326 24.8-4.333 17.444-12.799 33.165-23.953 44.43-14.622 14.767-33.728 22.254-56.789 22.254z" fill="url(#j)"/><path d="M685.63 804.1c-7.7 2.94-16.8 4.94-28.99 5.43-33.95 1.37-57.38-11.31-82.4-10.21l-.54-13.62 75.14-15.31h.02c15.12.02 28.59.69 38.97 1.61 1.19 8.21.67 19.69-2.2 32.1zm-111.39-4.78c-22.15 2.19-50.85 11.01-70.02 25.04-3.12-7.05-5.12-13.83-6.32-19.63 6.68-5.48 14.7-10.14 23.66-14.09l45.35-7.81z" fill="#002f94"/><path d="M1289.74 333.825H921.8V185.517h367.94z" fill="#2254d1"/><path d="M420.26 469.68c-50.262 0-262.983 49.05-262.983 212.468 0 90.575 99.518 108.276 149.154 101.97 26.184 39.79 63.802 50.392 103.486 50.392s124.218-35.622 174.473-35.622c50.254 0 115.48 17.59 126.043-38.243 4.511-23.846-16.296-33.903-16.296-33.903C716.028 681.26 697.12 469.68 420.26 469.68z" fill="url(#k)"/><path d="M1239.73 468.142c0 4.964-.6 9.801-1.736 14.421-3.88 15.954-14.09 29.444-27.81 37.637-9.087 5.45-19.73 8.576-31.09 8.576a59.91 59.91 0 0 1-14.612-1.786c-15.813-3.906-29.175-14.014-37.356-27.593-5.5-9.125-8.666-19.82-8.666-31.255 0-4.812.562-9.496 1.634-13.988 3.765-16.017 13.898-29.57 27.567-37.879 9.163-5.565 19.922-8.768 31.434-8.768a60.6 60.6 0 0 1 15.162 1.914c15.48 3.982 28.575 13.924 36.666 27.236 5.59 9.176 8.806 19.96 8.806 31.485z" fill="url(#l)"/><path d="m1208.015 426.866-70.22 70.22a51.255 51.255 0 0 1-1.926-2.962c-4.71-7.81-7.198-16.795-7.198-25.984 0-3.944.459-7.849 1.353-11.614 3.062-13.056 11.422-24.53 22.933-31.523 7.85-4.773 16.886-7.288 26.139-7.288 4.288 0 8.525.536 12.609 1.596a49.929 49.929 0 0 1 16.31 7.555z" fill="url(#m)"/><path d="M1164.851 526.499a1 1 0 0 1-.957-.711c-6.44-21.279-.985-43.797 14.237-58.768.03-.038.115-.12.198-.2l.067-.066a47.752 47.752 0 0 1 2.65-2.421c13.934-12.386 18.49-32.743 11.874-53.11a1 1 0 0 1 1.902-.619c6.865 21.136 2.09 42.302-12.465 55.24a46.701 46.701 0 0 0-2.48 2.258.92.92 0 0 1-.137.135l-.03.03c-.042.04-.087.081-.128.128-14.74 14.499-19.998 36.25-13.774 56.814a1 1 0 0 1-.957 1.29z" fill="#002f94"/><path d="M1217.287 486.322c-11.812 0-23.071-3.552-32.456-10.47a1.005 1.005 0 0 1-.13-.116l-.592-.619c-1.492-1.563-2.196-2.3-3.288-3.781-.607-.448-1.098-1.064-1.536-1.613-.295-.37-.574-.719-.845-.969a3.954 3.954 0 0 1-.32-.317c-.405-.397-.323-.94-.24-1.34-.936-.895-1.873-1.7-2.783-2.483-1.002-.86-1.95-1.674-2.818-2.543-17.516-14.6-39.083-10.414-50.37-6.613a.999.999 0 1 1-.639-1.895c20.177-6.792 38.769-4.294 52.357 7.033.882.876 1.8 1.666 2.773 2.502 1.045.897 2.125 1.825 3.227 2.907.416.416.334.926.243 1.35.362.348.675.74.979 1.121.4.504.817 1.024 1.237 1.304.097.066.183.148.253.243 1.07 1.465 1.699 2.123 3.217 3.713l.532.558c13.948 10.245 32.205 12.78 50.1 6.955a1 1 0 1 1 .62 1.901c-6.529 2.125-13.106 3.172-19.521 3.172zm-37.838-19.376z" fill="#002f94"/><path d="M1128.443 499.612c-.552 0-1-.442-1-.994v-.012c0-.167.042-.332.122-.478 10.67-19.6 29.867-31.686 50.239-31.686.244 0 .487.001.732.005.172-.003.41 0 .632.014a47.57 47.57 0 0 1 2.597.125c18.787 2.348 37.37-8.92 46.289-28.034l.214-.501c.14-.324.28-.65.415-.977a1 1 0 1 1 1.848.767c-.14.334-.283.67-.426 1l-.225.526c-9.302 19.933-28.71 31.656-48.31 29.209a47.11 47.11 0 0 0-2.467-.117c-.235-.013-.41-.01-.582-.012a48.42 48.42 0 0 0-.704-.005c-19.64 0-38.155 11.673-48.476 30.607a1.002 1.002 0 0 1-.898.563z" fill="#002f94"/><path d="M1209.393 519.88a.998.998 0 0 1-.442-.103c-10.992-5.436-19.62-13.625-25.643-24.338-4.92-8.863-5.261-18.41-5.19-27.428v-.552c.01-1.074.023-2.128.038-3.183.025-1.798.049-3.599.049-5.4-1.469-16.83-12.476-31.583-30.193-40.388a1 1 0 1 1 .89-1.791c18.357 9.122 29.764 24.465 31.299 42.093.004 1.897-.02 3.706-.045 5.513a683.901 683.901 0 0 0-.038 3.153v.563c-.07 8.76.254 18.01 4.937 26.444 5.82 10.352 14.159 18.267 24.783 23.521a1 1 0 0 1-.445 1.897zm-177.723 62.673-5.535-5.123h-39.597v-42.053l-5.94-3.896 5.94-5.123h11.573v39.499h39.5v11.573zm296.364 0 5.535-5.123h39.597v-42.053l5.94-3.896-5.94-5.123h-11.573v39.499h-39.5v11.573zm0-226.877 5.535 5.123h39.597v42.053l5.94 3.896-5.94 5.123h-11.573v-39.499h-39.5V360.8z" fill="#002f94"/><path d="M1379.107 582.553h-51.073V570.98h39.5v-39.5h11.573zm-347.437 0h-51.073V531.48h11.573v39.499h39.5zm347.437-175.805h-11.573v-39.5h-39.5v-11.572h51.073z" fill="#2254d1"/><path d="m1031.67 355.676-5.535 5.123h-39.597v42.053l-5.94 3.896 5.94 5.123h11.573v-39.499h39.5V360.8z" fill="#002f94"/><path d="M992.17 406.748h-11.573v-51.072h51.073v11.573h-39.5z" fill="#2254d1"/><path d="M992.387 367.249h-6.665l6.665 5.57zm375.141 0h6.666l-6.666 5.57zm-.025 203.691h6.666l-6.666-5.57zm-375.333 0h-6.666l6.666-5.57z" fill="#002f94"/><path d="M498.369 357.412h160.538v95.035H498.369z" fill="#2254d1"/><path d="M633.916 438.32H515.958a1 1 0 0 1-1-1v-66.725a1 1 0 1 1 2 0v65.726h116.958a1 1 0 1 1 0 2z" fill="#d2f1ff"/><path d="M515.958 438.32a1 1 0 1 1 0-2c10.158 0 16.692-13.38 23.01-26.32 6.396-13.096 13.01-26.64 23.783-26.64 7.883 0 11.452 6.028 14.905 11.856 3.355 5.663 6.523 11.012 13.444 11.012 7.332 0 11.94-7.605 16.817-15.657 5.956-9.832 12.706-20.976 25.999-20.976a1 1 0 1 1 0 2c-12.166 0-18.33 10.174-24.288 20.013-5.178 8.547-10.069 16.62-18.528 16.62-8.061 0-11.672-6.097-15.165-11.993-3.312-5.592-6.441-10.874-13.184-10.874-9.524 0-15.859 12.972-21.985 25.518-6.588 13.491-13.4 27.442-24.808 27.442z" fill="#d2f1ff"/><path d="M562.75 438.32a1 1 0 0 1-1-1v-52.96a1 1 0 1 1 2 0v52.96a1 1 0 0 1-1 1zm28.35 0a1 1 0 0 1-1-1v-30.092a1 1 0 1 1 2 0v30.093a1 1 0 0 1-1 1zm-79.548 9.92h-8.072a1 1 0 0 1-1-1v-8.071a1 1 0 1 1 2 0v7.071h7.072a1 1 0 1 1 0 2zm-8.072-76.645a1 1 0 0 1-1-1v-8.071a1 1 0 0 1 1-1h8.072a1 1 0 1 1 0 2h-7.072v7.071a1 1 0 0 1-1 1zm150.251-.5a1 1 0 0 1-1-1v-6.571h-6.571a1 1 0 1 1 0-2h7.571a1 1 0 0 1 1 1v7.571a1 1 0 0 1-1 1zm0 77.145h-7.571a1 1 0 1 1 0-2h6.571v-6.571a1 1 0 1 1 2 0v7.571a1 1 0 0 1-1 1z" fill="#d2f1ff"/><path d="M825.757 442.698c0 46.983-38.088 85.072-85.072 85.072-42.29 0-77.37-30.858-83.949-71.283a84.422 84.422 0 0 1-1.123-13.79c0-31.068 16.647-58.245 41.518-73.087 12.736-7.612 27.638-11.984 43.554-11.984 6.097 0 12.044.642 17.78 1.865a84.535 84.535 0 0 1 17.39 5.717c29.433 13.388 49.902 43.052 49.902 77.49z" fill="#002f94"/><path d="M820.675 437.616c0 46.984-38.088 85.072-85.072 85.072-42.29 0-77.37-30.857-83.948-71.282a84.415 84.415 0 0 1-1.123-13.79c37.468-27.703 81.685-61.486 120.241-77.49 29.434 13.388 49.902 43.053 49.902 77.49z" fill="url(#n)"/><path d="M735.603 437.618h-85.072c0-31.068 16.647-58.246 41.518-73.088 31.69 33.122 43.554 73.088 43.554 73.088z" fill="url(#o)"/><path d="M735.603 352.546a85.16 85.16 0 0 1 17.78 1.865l-17.78 83.207-43.554-73.088c12.736-7.612 27.639-11.984 43.554-11.984z" fill="url(#p)"/><path d="m770.773 360.126-35.17 77.49 17.781-83.206a84.533 84.533 0 0 1 17.39 5.716z" fill="#002f94"/><path d="m708.271 401.076-17.76-29.802c-11.196 7.642-20.154 17.97-26.22 29.802z" fill="url(#q)"/><path d="M268.815 661.649c-4.59-4.386-5.718-11.965-2.605-17.497s10.177-8.502 16.307-6.855c6.747 1.812 11.14 8.055 16.251 12.816s13.407 8.17 18.775 3.7c3.443-2.868 4.159-7.985 3.242-12.372-.917-4.386-3.156-8.365-4.739-12.557-2.014-5.333-2.952-11.3-1.243-16.739 1.708-5.438 6.522-10.13 12.213-10.447 8.287-.461 14.504 7.99 16.087 16.136 1.584 8.146.253 16.663 1.974 24.782s8.294 16.402 16.546 15.525c13.567-1.443 17.312-24.647 30.95-24.274 6.681.182 11.725 6.428 18.269 7.788 8.783 1.824 16.8-5.61 21.3-13.37 10.401-17.932 11.057-41.145 1.683-59.636 3.217-7.186 9.717-12.259 15.893-17.142 6.177-4.883 12.535-10.236 15.247-17.627s.161-17.305-7.257-19.942c-8.554-3.041-16.876 4.616-22.75 11.537-11.441 13.481-23.55 28.808-22.726 46.47.245 5.244 1.655 10.47 1.027 15.682-.629 5.212-4.208 10.679-9.449 10.993-6.305.379-10.654-7.005-10.044-13.292s4.392-11.731 7.192-17.393c3.14-6.348 5.145-13.549 3.885-20.517-1.26-6.968-6.383-13.532-13.33-14.902-10.006-1.972-19.276 7.417-21.406 17.39s.72 20.233 2.759 30.224c.914 4.482 1.652 9.234.129 13.547s-6.067 7.897-10.502 6.776c-5.094-1.288-6.995-7.335-10.23-11.476-4.64-5.942-12.83-8.211-20.337-7.506-7.506.705-14.515 3.945-21.256 7.322-5.954 2.982-11.834 6.11-17.713 9.237l-17.569 9.345c-9.251 4.921-18.639 9.94-26.15 17.247-22.61 21.999-9.314 49.804 15.19 63 7.108 3.829 16.693 6.965 21.727-1.372 8.76-14.51-10.094-17.677-17.34-24.601z" fill="url(#r)"/><path d="M290.795 726.674c-1.913-5.109-1.052-10.84.526-16.062 6.693-22.147 26.73-39.668 49.57-43.348 18.948-3.052 38.46 2.757 57.442-.078 9.718-1.451 18.953-5.123 28.51-7.401s19.988-3.069 28.9 1.069c9.653 4.48 18.53 14.66 28.695 11.505 4.786-1.486 8.149-5.674 11.208-9.643l9.448-12.259c3.855-5.002 7.907-11.471 5.2-17.177-3.28-6.914-13.414-6.409-20.406-3.298-6.991 3.111-14.294 7.85-21.665 5.797-9.913-2.763-12.63-15.799-10.737-25.914 2.865-15.31 12.235-29.292 25.306-37.763s29.661-11.31 44.806-7.671c6.449 1.55 12.962 4.493 16.673 9.99 3.71 5.498 3.484 13.986-1.87 17.901-6.772 4.954-16.055.313-23.602-3.356-7.562-3.677-16.454-6.31-24.277-3.228-7.824 3.082-12.54 14.123-6.854 20.318 6.474 7.055 18.071 2.059 27.59 3.096 10.463 1.141 19.042 11.471 18.242 21.966 4.575-5.49 9.235-11.056 15.158-15.055 5.924-3.998 13.389-6.288 20.308-4.501 6.92 1.787 12.762 8.432 12.1 15.547-.593 6.38-5.755 11.241-10.575 15.462L530.8 677.329c-14.014 12.273-29.32 25.13-47.858 26.979-15.69 1.566-30.908-5.087-46.481-7.562-10.96-1.742-22.132-1.405-33.224-1.065l-37.292 1.147c-14.879.457-37.756.617-47.544 14.146-3.767 5.208-4.208 12.217-7.661 17.561-5.368 8.307-16.185 8.176-19.944-1.861z" fill="url(#s)"/><path d="M265.59 735.29c-3.612-4.882-8.663-8.468-13.625-11.968l-35.04-24.715c-4.925-3.474-9.95-7-15.692-8.834s-12.416-1.747-17.371 1.685c-4.955 3.433-7.339 10.739-4.136 15.845 4.996 7.966 18.107 5.569 24.77 12.204 4.15 4.133 4.663 10.646 7.646 15.687 3.515 5.942 10.065 9.278 16.27 12.305l11.392 5.558c5.489 2.677 23.18 13.256 29.138 8.935 6.862-4.975.333-21.719-3.353-26.702z" fill="url(#t)"/><path d="M389.385 501.056c2.777-7.976 9.854-13.866 17.631-17.16 14.225-6.026 30.376-4.413 45.727-2.684 35.654 4.016 71.9 8.233 104.855 22.419 44.138 18.999 79.46 54.952 104.501 95.964 6.082 9.96 11.634 20.277 15.927 31.128a149.877 149.877 0 0 1 10.31 47.665c.425 8.64.047 17.56-3.406 25.492-3.452 7.932-10.512 14.74-19.092 15.843-8.58 1.103-18.05-4.984-18.861-13.596-.596-6.327 3.143-12.121 5.473-18.033s2.682-13.906-2.647-17.368c-5.243-3.406-12.224-.058-17.01 3.965-8.246 6.932-14.565 15.836-21.986 23.645s-16.574 14.799-27.268 16.102c-10.693 1.303-22.833-4.93-24.984-15.486-2.505-12.302 8.428-22.842 18.274-30.632l30.867-24.422c6.162-4.875 12.503-9.964 16.126-16.935 3.623-6.972 3.77-16.397-1.796-21.942-9.066-9.032-27.813-3.835-34.215-14.916-4.451-7.705.849-17.42-.206-26.257-1.132-9.476-9.76-16.714-19.007-19.076-9.247-2.36-19.007-.808-28.35 1.137-7.459 1.552-15.016 3.36-22.606 2.696-7.589-.664-15.394-4.306-18.88-11.08-3.17-6.158-2.435-14.054-6.697-19.514-3.19-4.088-8.477-5.854-13.52-7.063-19.395-4.652-41.833-6.645-57.906 6.313-6.087 4.908-13.547 9.908-21.906 6.998-9.133-3.18-12.315-14.684-9.348-23.203z" fill="url(#u)"/><path d="M366.708 812.81c-15.324-7.458-29.07-20.017-33.694-36.42s2.29-36.506 17.944-43.246c9.67-4.163 23.192-1.326 26.924 8.517 3.855 10.172-3.932 22.97 2.234 31.93 4.608 6.697 14.67 6.998 22.185 3.899 7.514-3.1 13.757-8.71 21.182-12.019 7.425-3.307 17.358-3.61 22.51 2.676 3.626 4.424 3.902 10.93 7.646 15.253 5.18 5.98 14.954 5.305 21.857 1.441 6.903-3.864 12.12-10.128 18.519-14.78s15.207-7.6 22.142-3.794c9.491 5.209 8.996 20.133 1.755 28.182-7.24 8.05-18.432 10.987-28.953 13.537-40.301 9.768-82.24 24.3-122.25 4.825z" fill="url(#v)"/><path d="M328.105 550.78c-8.108-2.273-17.416.536-22.912 6.916-6.662 7.732-7.558 19.392-14.78 26.603-14.582 14.556-42.735 1.193-58.515 14.44-7.705 6.467-9.853 17.41-10.038 27.467-.185 10.058 1.063 20.367-1.825 30.003s-11.645 18.588-21.633 17.384c-9.368-1.13-15.771-10.863-16.429-20.276s3.004-18.53 6.597-27.256l15.086-36.636c4.21-10.222 9.983-21.8 20.816-24.004 7.329-1.492 15.263 1.906 22.266-.72 7.074-2.652 10.587-10.339 14.262-16.94 16.318-29.314 49.928-48.099 83.446-46.638 6.832.298 14.627 2.035 17.814 8.084 2.225 4.223 1.504 9.326.725 14.035l-6.366 38.487c-1.373 8.3-6.626 11.991-12.338 5.507-5.744-6.52-6.32-13.69-16.176-16.455z" fill="url(#w)"/><g fill="#002f94"><path d="M693.347 726.954a1 1 0 0 1-.412-.09c-7.722-3.507-23.382-4.648-31.25-.804a1 1 0 1 1-.879-1.797c8.337-4.073 24.846-2.904 32.956.78a1 1 0 0 1-.415 1.911zM453.798 542.115h-36.55a1 1 0 1 1 0-2h36.136l89.002-89.002a1 1 0 1 1 1.414 1.414l-89.295 89.295a1 1 0 0 1-.707.293z"/><path d="M545.566 564.304a.997.997 0 0 1-.707-.293l-21.895-21.896h-69.166a1 1 0 1 1 0-2h69.58a1 1 0 0 1 .707.293l22.188 22.189a1 1 0 0 1-.707 1.707zm14.606 71.816h-55.074a1 1 0 1 1 0-2h54.66L686.59 507.285a1 1 0 1 1 1.414 1.414L560.879 635.826a1 1 0 0 1-.707.293zm51.848 30.961a1 1 0 0 1-.707-1.707l98.184-98.184a1 1 0 0 1 .707-.293h95.062a1 1 0 1 1 0 2h-94.648l-97.892 97.891a.997.997 0 0 1-.707.293zM503.776 813.703a1 1 0 0 1-.707-1.707l50.371-50.371a1 1 0 1 1 1.414 1.414l-50.37 50.37a.997.997 0 0 1-.708.294zm148.444-12.325a.997.997 0 0 1-.707-.293l-42.988-42.987a.999.999 0 0 1 .707-1.707h41.29a1 1 0 1 1 0 2h-38.876l41.28 41.28a1 1 0 0 1-.706 1.707z"/><path d="M609.232 758.39a.997.997 0 0 1-.707-.292l-49.395-49.395h-56.002a1 1 0 1 1 0-2h56.416a1 1 0 0 1 .707.293l49.688 49.688a1 1 0 0 1-.707 1.707zm-197.079 76.053a1 1 0 0 1-.707-1.707l59.464-59.463h-65.88a1 1 0 1 1 0-2h68.294a1 1 0 0 1 .707 1.707l-61.17 61.17a.997.997 0 0 1-.708.293zM271.29 784.528a1 1 0 0 1-.707-1.707L392.66 660.746a1 1 0 0 1 .707-.293h45.894a1 1 0 1 1 0 2h-45.48L271.998 784.235a.997.997 0 0 1-.707.293zm-28.106-42.203h-64.916a1 1 0 1 1 0-2h64.502l33.102-33.101a1 1 0 1 1 1.414 1.414l-33.395 33.394a1 1 0 0 1-.707.293zm-11.356-83.081a.997.997 0 0 1-.707-.293l-54.47-54.47a1 1 0 1 1 1.413-1.415l54.471 54.471a1 1 0 0 1-.707 1.707zM332.691 644.6a.997.997 0 0 1-.707-.293l-27.894-27.894h-35.63a1 1 0 0 1-.706-.293l-56.876-56.876a1 1 0 1 1 1.414-1.414l56.583 56.583h35.629a1 1 0 0 1 .707.293l28.187 28.187a1 1 0 0 1-.707 1.707zm.874-77.196a.997.997 0 0 1-.707-.293l-54.94-54.939a1 1 0 1 1 1.415-1.414l54.94 54.94a1 1 0 0 1-.708 1.706z"/><path d="M305.155 783.899a.997.997 0 0 1-.87-.506c-4.097-7.213-4.502-15.101-4.121-20.448a1 1 0 1 1 1.994.143c-.51 7.168.862 14.029 3.865 19.317a1 1 0 0 1-.868 1.494z"/></g><path d="M878.391 544.607h40.974v39.116h-40.974z" fill="#d2f1ff"/><path d="m881.19 544.607-8.407 39.116h16.44z" fill="#002f94"/><path d="M839 492.03h42.19v91.693H839z" fill="#2254d1"/><path d="m843.013 492.03-10.665 91.693h20.53z" fill="#002f94"/><path d="M804.837 465.779h38.176v117.944h-38.176z" fill="#64a8f8"/><circle cx="921.444" cy="250.844" fill="url(#x)" r="113.394"/><path d="M982.667 167.162 837.753 312.076c-12.606-17.172-20.048-38.35-20.048-61.236 0-57.2 46.535-103.736 103.736-103.736 22.877 0 44.054 7.442 61.226 20.058z" fill="url(#y)"/><path d="M984.954 211.823a357.64 357.64 0 0 0-127.02 0c-14.133 3.134-25.435 17.75-25.435 31.237 0 13.488 11.302 28.103 25.435 31.237a357.64 357.64 0 0 0 127.02 0c14.132-3.134 25.434-17.75 25.435-31.237 0-13.488-11.303-28.103-25.435-31.237z" fill="#002f94"/><path d="M921.445 270.328a348.983 348.983 0 0 1-61.588-5.492c-9.288-2.16-17.706-12.489-17.705-21.775 0-9.288 8.418-19.617 17.705-21.777a348.983 348.983 0 0 1 61.588-5.492 348.98 348.98 0 0 1 61.586 5.492c9.287 2.16 17.704 12.49 17.705 21.777 0 9.285-8.417 19.614-17.705 21.775a348.989 348.989 0 0 1-61.586 5.492z" fill="url(#z)"/><path d="M953.304 310.115h-61.266a1 1 0 1 1 0-2h61.266a1 1 0 1 1 0 2z" fill="#002f94"/><g clip-path="url(#A)"><path d="M1261.289 245.454s.787 10.212 0 24.869c-18.689 52.397-65.508 125.604-89.114 152.358-80.655 4.405-151.671-49.212-159.54-57.569-1.574-5.775-1.574-14.234-1.574-19.82z" fill="#8bd2ff"/><path d="M1118.24 204.275c-24.556 41.179-74.207 103.64-107.179 141.018 23.099 31.649 105.786 66.73 159.343 61.158 24.787-26.065 81.541-126.357 90.885-160.997-42.44-2.493-118.679-23.313-143.049-41.179z" fill="#d2f1ff"/><path d="M1133.675 230.463c-3.34 0-6.618-1.286-9.149-3.802-3.667-3.647-5.992-10.802-.476-18.965 4.785-7.084 12.954-8.167 18.208-5.588 4.386 2.153 8.036 7.604 5.123 16.448a1.001 1.001 0 0 1-1.9-.626c2.132-6.475.598-11.718-4.104-14.026-4.558-2.237-11.666-1.013-15.671 4.912-4.825 7.143-3.045 13.169.23 16.427 3.13 3.113 8.926 4.803 14.261 1.157a1.001 1.001 0 0 1 1.129 1.652c-2.364 1.616-5.027 2.411-7.651 2.411zm30.46 11.086c-3.128 0-5.944-1.143-8.18-3.405-4.373-4.425-5.297-11.904-2.195-17.782 4.397-8.334 12.684-10.353 18.602-8.035 4.724 1.85 9.366 7.28 6.904 16.5a1 1 0 0 1-1.932-.516c2.119-7.936-1.556-12.498-5.701-14.121-5.084-1.993-12.254-.192-16.104 7.106-2.662 5.044-1.867 11.683 1.849 15.442 3.346 3.386 8.132 3.742 13.48 1a1 1 0 0 1 .912 1.78c-2.648 1.357-5.234 2.03-7.635 2.03zm31.88 9.404c-2.909 0-5.65-1.006-7.79-2.58-4.772-3.514-7.78-10.636-3.744-18.625 4.48-8.866 13.41-11.167 19.544-8.829 4.83 1.842 9.127 7.041 6.706 16.109a1 1 0 0 1-1.932-.516c2.078-7.783-1.472-12.193-5.487-13.724-5.316-2.03-13.093.04-17.046 7.862-3.51 6.947-.95 13.097 3.145 16.112 3.486 2.567 9.41 3.77 14.628-1.283a1 1 0 1 1 1.39 1.437c-2.965 2.872-6.286 4.037-9.414 4.037zm34.467 7.1c-2.964 0-5.958-.813-8.537-2.49-5.945-3.867-7.402-10.93-3.897-18.893 4.021-9.139 13.361-11.737 20.107-9.544 5.445 1.77 10.506 7.144 8.382 16.913a1 1 0 0 1-1.955-.425c1.842-8.466-2.432-13.086-7.045-14.586-5.914-1.92-14.111.385-17.66 8.447-3.12 7.094-1.97 13.075 3.158 16.41 5.312 3.455 12.95 2.624 17.027-1.854a1 1 0 0 1 1.479 1.347c-2.797 3.07-6.897 4.675-11.059 4.675zm-13.172 25.101c-.047 0-.096-.003-.144-.01-36.274-5.236-83.936-20.77-106.245-34.626a1 1 0 0 1 1.054-1.7c22.115 13.736 69.431 29.144 105.476 34.347a1 1 0 0 1-.142 1.99zm-12.133 18.089a.966.966 0 0 1-.099-.005c-37.13-3.636-92.083-24.902-105.605-35.828a1 1 0 0 1 1.257-1.556c13.347 10.784 67.73 31.789 104.543 35.394a1 1 0 0 1-.096 1.995zm-76.24 68.61a.992.992 0 0 1-.126-.008c-29.1-3.674-58.02-15.348-75.473-30.469a1 1 0 1 1 1.308-1.512c17.173 14.876 45.687 26.37 74.415 29.996a1 1 0 0 1-.124 1.993zm47.58-30.233a.966.966 0 0 1-.098-.005c-37.13-3.636-92.083-24.902-105.607-35.828a1.001 1.001 0 0 1 1.258-1.556c13.348 10.784 67.733 31.79 104.544 35.394a1 1 0 0 1-.097 1.995zm-17.997-31.207c-.046 0-.094-.004-.142-.01-20.253-2.907-43.631-11.295-59.56-21.37a1 1 0 1 1 1.069-1.691c15.71 9.936 38.78 18.211 58.774 21.08a1 1 0 0 1-.14 1.99zm5.859 50.562a.992.992 0 0 1-.143-.01c-20.64-2.962-50.156-9.846-65.418-19.5a1 1 0 1 1 1.069-1.69c14.995 9.484 44.189 16.276 64.632 19.21a1 1 0 0 1-.14 1.99z" fill="#002f94"/><path d="m1137.165 405.503 16.311-2.676 27.055-8.167v6.086l-9.891 11.949-21.762-.824z" fill="#8bd2ff"/><path d="M1137.165 405.503c9.559-1.825 15.486-8.96 15.864-17.935 11.35-.755 20 2.2 26.935 7.406-7.494 8.704-20.897 15.378-42.8 10.53z" fill="#002f94"/></g><circle cx="203.71" cy="452.395" fill="#8bd2ff" r="15.802"/><circle cx="373.821" cy="412.873" fill="url(#B)" r="20.305"/><circle cx="311.152" cy="339.922" fill="#4480e6" r="15.51"/><circle cx="258.078" cy="281.988" fill="#64a8f8" r="10.188"/><circle cx="331.035" cy="216.319" fill="#8bd2ff" r="11.526"/><circle cx="467.71" cy="208.296" fill="url(#C)" r="18.339"/><circle cx="408.877" cy="288.105" fill="#8bd2ff" r="9.72"/><circle cx="589.712" cy="156.911" fill="#64a8f8" r="11.242"/><circle cx="582.61" cy="264.325" fill="#4480e6" r="10.459"/><circle cx="678.894" cy="283.854" fill="url(#D)" r="19.529"/><circle cx="740.876" cy="242.019" fill="#64a8f8" r="8.2"/><circle cx="768.095" cy="292.115" fill="#8bd2ff" r="10.904"/><circle cx="768.095" cy="165.389" fill="#4480e6" r="20.261"/><circle cx="231.828" cy="658.244" fill="#002f94" r="9.941"/><circle cx="276.579" cy="707.931" fill="#002f94" r="9.941"/><circle cx="333.565" cy="566.404" fill="#002f94" r="9.941"/><circle cx="417.249" cy="541.164" fill="#f04af4" r="9.941"/><circle cx="332.691" cy="643.6" fill="#002f94" r="9.941"/><circle cx="439.26" cy="661.453" fill="#002f94" r="9.941"/><circle cx="505.099" cy="635.119" fill="#f04af4" r="9.941"/><circle cx="405.029" cy="772.273" fill="#002f94" r="9.941"/><circle cx="503.128" cy="707.931" fill="#002f94" r="9.941"/><circle cx="554.147" cy="762.332" fill="#002f94" r="9.941"/><circle cx="652.219" cy="757.391" fill="#002f94" r="9.941"/><circle cx="612.019" cy="665.959" fill="#f04af4" r="9.941"/><circle cx="545.566" cy="563.304" fill="#002f94" r="9.941"/><circle cx="543.093" cy="452.24" fill="#002f94" r="7.933"/><circle cx="687.603" cy="507.819" fill="#002f94" r="7.933"/><circle cx="805.266" cy="567.897" fill="#002f94" r="7.933"/><g clip-path="url(#E)" fill="#d2f1ff"><path d="M1177.336 396.838a1 1 0 0 1-.992-.885c-.199-1.725-.398-3.4-.591-5.024-1.7-14.296-2.927-24.626 1.221-29.297 1.596-1.796 3.854-2.67 6.904-2.67.74 0 1.443.047 2.19.097 1.573.105 3.202.215 5.32-.127 5.705-.92 5.837-4.62 5.415-17.317-.116-3.46-.246-7.38-.246-11.974a1 1 0 1 1 2 0c0 4.56.13 8.464.245 11.907.401 12.063.602 18.118-7.096 19.358-2.344.377-4.165.256-5.772.149a30.57 30.57 0 0 0-2.056-.093c-2.445 0-4.214.654-5.408 1.998-3.552 4-2.369 13.955-.73 27.733.193 1.626.392 3.304.59 5.031a1 1 0 0 1-.994 1.114zm32.057 3.032a1 1 0 0 1-.993-.896c-.878-8.372-1.16-13.15-1.16-19.66 0-7.55 3.922-11.673 11.343-11.925 6.844-.234 13.958.007 20.839.24 4.426.15 8.607.291 12.597.307 4.165-.02 7.386-.976 9.265-2.87 1.424-1.436 2.13-3.437 2.1-5.946-.045-3.817-.244-8.735-.455-13.942-.23-5.671-.467-11.536-.551-16.9a1 1 0 0 1 .984-1.015h.016a1 1 0 0 1 1 .984c.083 5.339.32 11.191.55 16.85.21 5.221.41 10.153.457 13.998.037 3.067-.866 5.55-2.681 7.38-2.247 2.265-5.905 3.46-10.583 3.46h-.11c-4.02-.015-8.215-.157-12.658-.307-6.845-.232-13.922-.47-20.702-.24-6.42.218-9.41 3.372-9.41 9.926 0 6.432.278 11.158 1.148 19.45a1 1 0 0 1-.996 1.105zm-58.123 0a1 1 0 0 1-1-1c0-19.559-.702-25.895-9.05-26.062-3.802-.078-7.64.066-11.026.192-2.3.085-4.472.166-6.32.166-6.3 0-14.679-1.226-14.679-11.826l-.006-11.736c-.005-5.684-.01-12.288-.01-20.812a1 1 0 1 1 2 0c0 8.523.005 15.127.01 20.81l.006 11.738c0 6.887 3.792 9.826 12.68 9.826 1.81 0 3.964-.08 6.245-.165 3.414-.126 7.285-.269 11.14-.193 11.01.22 11.01 10.7 11.01 28.061a1 1 0 0 1-1 1z"/></g></svg>